HIERARCHY
ROOT Hips
{
  OFFSET 0.154708 93.6284 0.425337
  CHANNELS 6 Xposition Yposition Zposition Zrotation Xrotation Yrotation
  JOINT Spine
  {
    OFFSET 0 9.9235 -1.2273
    CHANNELS 6 Xposition Yposition Zposition Zrotation Xrotation Yrotation
    JOINT Spine1
    {
      OFFSET -0.0001 11.6454 -1.4223
      CHANNELS 6 Xposition Yposition Zposition Zrotation Xrotation Yrotation
      JOINT Spine2
      {
        OFFSET 0.0001 13.3602 -1.6265
        CHANNELS 6 Xposition Yposition Zposition Zrotation Xrotation Yrotation
        JOINT Neck
        {
          OFFSET 0 15.0325 0.7929
          CHANNELS 6 Xposition Yposition Zposition Zrotation Xrotation Yrotation
          JOINT Head
          {
            OFFSET 0 10.3218 3.1424
            CHANNELS 6 Xposition Yposition Zposition Zrotation Xrotation Yrotation
            JOINT HeadTop_End
            {
              OFFSET 0.0002 18.4747 6.6364
              CHANNELS 6 Xposition Yposition Zposition Zrotation Xrotation Yrotation
              End Site
              {
                OFFSET 0 0 0
              }
            }
            JOINT LeftEye
            {
              OFFSET 2.9479 7.6817 9.1207
              CHANNELS 6 Xposition Yposition Zposition Zrotation Xrotation Yrotation
              End Site
              {
                OFFSET 0 0 0
              }
            }
            JOINT RightEye
            {
              OFFSET -2.9445 7.6817 9.1205
              CHANNELS 6 Xposition Yposition Zposition Zrotation Xrotation Yrotation
              End Site
              {
                OFFSET 0 0 0
              }
            }
          }
        }
        JOINT LeftShoulder
        {
          OFFSET 6.1058 9.1104 0.7056
          CHANNELS 6 Xposition Yposition Zposition Zrotation Xrotation Yrotation
          JOINT LeftArm
          {
            OFFSET 12.655 -0.2659 -2.6009
            CHANNELS 6 Xposition Yposition Zposition Zrotation Xrotation Yrotation
            JOINT LeftForeArm
            {
              OFFSET 27.4047 0 0
              CHANNELS 6 Xposition Yposition Zposition Zrotation Xrotation Yrotation
              JOINT LeftHand
              {
                OFFSET 27.6145 0 0
                CHANNELS 6 Xposition Yposition Zposition Zrotation Xrotation Yrotation
                JOINT LeftHandMiddle1
                {
                  OFFSET 12.7755 0 0
                  CHANNELS 6 Xposition Yposition Zposition Zrotation Xrotation Yrotation
                  JOINT LeftHandMiddle2
                  {
                    OFFSET 3.614 0 0
                    CHANNELS 6 Xposition Yposition Zposition Zrotation Xrotation Yrotation
                    JOINT LeftHandMiddle3
                    {
                      OFFSET 3.4598 0 0
                      CHANNELS 6 Xposition Yposition Zposition Zrotation Xrotation Yrotation
                      End Site
                      {
                        OFFSET 3.6802 0 0
                      }
                    }
                  }
                }
                JOINT LeftHandThumb1
                {
                  OFFSET 3.7888 -2.167 3.0031
                  CHANNELS 6 Xposition Yposition Zposition Zrotation Xrotation Yrotation
                  JOINT LeftHandThumb2
                  {
                    OFFSET 3.6754 -2.122 2.122
                    CHANNELS 6 Xposition Yposition Zposition Zrotation Xrotation Yrotation
                    JOINT LeftHandThumb3
                    {
                      OFFSET 3.3944 -1.9597 1.9598
                      CHANNELS 6 Xposition Yposition Zposition Zrotation Xrotation Yrotation
                      End Site
                      {
                        OFFSET 2.6794 -1.5469 1.5469
                      }
                    }
                  }
                }
                JOINT LeftHandIndex1
                {
                  OFFSET 12.2666 -0.2317 2.8221
                  CHANNELS 6 Xposition Yposition Zposition Zrotation Xrotation Yrotation
                  JOINT LeftHandIndex2
                  {
                    OFFSET 3.892 0 0
                    CHANNELS 6 Xposition Yposition Zposition Zrotation Xrotation Yrotation
                    JOINT LeftHandIndex3
                    {
                      OFFSET 3.4152 0 0
                      CHANNELS 6 Xposition Yposition Zposition Zrotation Xrotation Yrotation
                      End Site
                      {
                        OFFSET 3.078 0 0
                      }
                    }
                  }
                }
                JOINT LeftHandRing1
                {
                  OFFSET 12.147 0.0099 -2.2166
                  CHANNELS 6 Xposition Yposition Zposition Zrotation Xrotation Yrotation
                  JOINT LeftHandRing2
                  {
                    OFFSET 3.6012 0 0
                    CHANNELS 6 Xposition Yposition Zposition Zrotation Xrotation Yrotation
                    JOINT LeftHandRing3
                    {
                      OFFSET 3.3073 0 0
                      CHANNELS 6 Xposition Yposition Zposition Zrotation Xrotation Yrotation
                      End Site
                      {
                        OFFSET 3.6601 0 0
                      }
                    }
                  }
                }
                JOINT LeftHandPinky1
                {
                  OFFSET 10.9082 -0.2264 -4.7258
                  CHANNELS 6 Xposition Yposition Zposition Zrotation Xrotation Yrotation
                  JOINT LeftHandPinky2
                  {
                    OFFSET 4.1367 0 0
                    CHANNELS 6 Xposition Yposition Zposition Zrotation Xrotation Yrotation
                    JOINT LeftHandPinky3
                    {
                      OFFSET 2.5948 0 0
                      CHANNELS 6 Xposition Yposition Zposition Zrotation Xrotation Yrotation
                      End Site
                      {
                        OFFSET 2.9239 0 0
                      }
                    }
                  }
                }
              }
            }
          }
        }
        JOINT RightShoulder
        {
          OFFSET -6.1057 9.1105 0.7056
          CHANNELS 6 Xposition Yposition Zposition Zrotation Xrotation Yrotation
          JOINT RightArm
          {
            OFFSET -12.655 -0.266 -2.6009
            CHANNELS 6 Xposition Yposition Zposition Zrotation Xrotation Yrotation
            JOINT RightForeArm
            {
              OFFSET -27.4047 0 0
              CHANNELS 6 Xposition Yposition Zposition Zrotation Xrotation Yrotation
              JOINT RightHand
              {
                OFFSET -27.6145 0 0
                CHANNELS 6 Xposition Yposition Zposition Zrotation Xrotation Yrotation
                JOINT RightHandMiddle1
                {
                  OFFSET -12.7755 0 0
                  CHANNELS 6 Xposition Yposition Zposition Zrotation Xrotation Yrotation
                  JOINT RightHandMiddle2
                  {
                    OFFSET -3.614 0 0
                    CHANNELS 6 Xposition Yposition Zposition Zrotation Xrotation Yrotation
                    JOINT RightHandMiddle3
                    {
                      OFFSET -3.4598 0 0
                      CHANNELS 6 Xposition Yposition Zposition Zrotation Xrotation Yrotation
                      End Site
                      {
                        OFFSET -3.6802 0 0
                      }
                    }
                  }
                }
                JOINT RightHandThumb1
                {
                  OFFSET -3.7888 -2.167 3.0031
                  CHANNELS 6 Xposition Yposition Zposition Zrotation Xrotation Yrotation
                  JOINT RightHandThumb2
                  {
                    OFFSET -3.6754 -2.122 2.122
                    CHANNELS 6 Xposition Yposition Zposition Zrotation Xrotation Yrotation
                    JOINT RightHandThumb3
                    {
                      OFFSET -3.3944 -1.9597 1.9598
                      CHANNELS 6 Xposition Yposition Zposition Zrotation Xrotation Yrotation
                      End Site
                      {
                        OFFSET -2.6794 -1.5469 1.5469
                      }
                    }
                  }
                }
                JOINT RightHandIndex1
                {
                  OFFSET -12.2666 -0.2317 2.8221
                  CHANNELS 6 Xposition Yposition Zposition Zrotation Xrotation Yrotation
                  JOINT RightHandIndex2
                  {
                    OFFSET -3.892 0 0
                    CHANNELS 6 Xposition Yposition Zposition Zrotation Xrotation Yrotation
                    JOINT RightHandIndex3
                    {
                      OFFSET -3.4152 0 0
                      CHANNELS 6 Xposition Yposition Zposition Zrotation Xrotation Yrotation
                      End Site
                      {
                        OFFSET -3.078 0 0
                      }
                    }
                  }
                }
                JOINT RightHandRing1
                {
                  OFFSET -12.147 0.0099 -2.2166
                  CHANNELS 6 Xposition Yposition Zposition Zrotation Xrotation Yrotation
                  JOINT RightHandRing2
                  {
                    OFFSET -3.6012 0 0
                    CHANNELS 6 Xposition Yposition Zposition Zrotation Xrotation Yrotation
                    JOINT RightHandRing3
                    {
                      OFFSET -3.3073 0 0
                      CHANNELS 6 Xposition Yposition Zposition Zrotation Xrotation Yrotation
                      End Site
                      {
                        OFFSET -3.6601 0 0
                      }
                    }
                  }
                }
                JOINT RightHandPinky1
                {
                  OFFSET -10.9082 -0.2264 -4.7258
                  CHANNELS 6 Xposition Yposition Zposition Zrotation Xrotation Yrotation
                  JOINT RightHandPinky2
                  {
                    OFFSET -4.1367 0 0
                    CHANNELS 6 Xposition Yposition Zposition Zrotation Xrotation Yrotation
                    JOINT RightHandPinky3
                    {
                      OFFSET -2.5948 0 0
                      CHANNELS 6 Xposition Yposition Zposition Zrotation Xrotation Yrotation
                      End Site
                      {
                        OFFSET -2.9239 0 0
                      }
                    }
                  }
                }
              }
            }
          }
        }
      }
    }
  }
  JOINT RightUpLeg
  {
    OFFSET -9.1245 -6.6564 -0.0554
    CHANNELS 6 Xposition Yposition Zposition Zrotation Xrotation Yrotation
    JOINT RightLeg
    {
      OFFSET -0.2447 -40.5954 -0.5145
      CHANNELS 6 Xposition Yposition Zposition Zrotation Xrotation Yrotation
      JOINT RightFoot
      {
        OFFSET 0.2447 -42.0479 -2.0602
        CHANNELS 6 Xposition Yposition Zposition Zrotation Xrotation Yrotation
        JOINT RightToeBase
        {
          OFFSET -0.3734 -10.4922 12.6407
          CHANNELS 6 Xposition Yposition Zposition Zrotation Xrotation Yrotation
          End Site
          {
            OFFSET 0 0 9.9925
          }
        }
      }
    }
  }
  JOINT LeftUpLeg
  {
    OFFSET 9.1245 -6.6564 -0.0554
    CHANNELS 6 Xposition Yposition Zposition Zrotation Xrotation Yrotation
    JOINT LeftLeg
    {
      OFFSET 0.2447 -40.5954 -0.517
      CHANNELS 6 Xposition Yposition Zposition Zrotation Xrotation Yrotation
      JOINT LeftFoot
      {
        OFFSET -0.2447 -42.048 -2.0576
        CHANNELS 6 Xposition Yposition Zposition Zrotation Xrotation Yrotation
        JOINT LeftToeBase
        {
          OFFSET 0.3734 -10.4922 12.6407
          CHANNELS 6 Xposition Yposition Zposition Zrotation Xrotation Yrotation
          End Site
          {
            OFFSET 0 0 9.9925
          }
        }
      }
    }
  }
}
MOTION
Frames:	4
Frame Time:	0.0333333
0.154708 93.6284 0.425337 -0.431622 5.377 -6.83514 -2.22045e-016 9.9235 -1.2273 4.38626 9.33056 2.48282 -0.0001 11.6454 -1.4223 1.05153 6.42816 1.17424 0.0001 13.3602 -1.6265 1.10977 6.43372 1.12152 0 15.0325 0.7929 -1.41943 2.1675 -0.579775 0 10.3218 3.1424 0.173412 -3.4281 -2.65546 0.0002 18.4747 6.6364 1.59028e-015 0 -0 2.9479 7.6817 9.1207 1.59028e-015 0 -0 -2.9445 7.6817 9.1205 1.59028e-015 0 -0 6.1058 9.1104 0.7056 -14.744 4.1911 -9.17483 12.655 -0.2659 -2.6009 -72.1204 -10.3051 -22.8916 27.4047 0 -8.88178e-016 1.95559e-005 -8.33244e-006 -31.1315 27.6145 0 -1.42109e-014 3.53144 13.937 2.52659 12.7755 7.10543e-015 7.10543e-015 -13.5359 -0.65411 3.68515 3.614 -7.10543e-015 3.55271e-015 -27.1355 -0.64629 2.67757 3.4598 -1.77636e-015 -3.55271e-015 -6.70787 -0.0401748 0.685491 3.7888 -2.167 3.0031 4.62115 -6.47489 -5.6252 3.6754 -2.122 2.122 2.2045 8.61781 24.574 3.3944 -1.9597 1.9598 17.472 4.20363 25.9879 12.2666 -0.2317 2.8221 -25.2122 -1.50948 4.66707 3.892 0 0 -26.0352 -0.595806 2.57667 3.4152 -3.55271e-015 0 -15.3613 -0.209691 1.55478 12.147 0.0099 -2.2166 -22.0809 -1.26064 4.42105 3.6012 0 0 -26.9824 -0.639145 2.66359 3.3073 -1.77636e-015 0 -22.8786 -0.461845 2.28215 10.9082 -0.2264 -4.7258 -29.2839 -1.85259 4.96609 4.1367 0 0 -13.5121 -0.162457 1.3713 2.5948 -1.77636e-015 0 -22.8786 -0.461849 2.28215 -6.1057 9.1105 0.7056 5.21998 6.47731 17.3806 -12.655 -0.266 -2.6009 67.4575 -5.37541 13.6569 -27.4047 3.55271e-015 -3.55271e-015 -2.17296e-006 3.55446e-006 22.6244 -27.6145 0 0 1.31132 11.675 8.89744 -12.7755 0 0 25.9886 -1.43061 -4.11927 -3.614 -8.88178e-016 0 21.3689 -0.320726 -1.69985 -3.4598 3.55271e-015 1.77636e-015 25.5711 -0.457023 -2.01374 -3.7888 -2.167 3.0031 -4.77961 -7.19385 -4.49763 -3.6754 -2.122 2.122 -2.78923 9.41523 -27.6568 -3.3944 -1.9597 1.9598 -16.4739 1.59056 -18.8181 -12.2666 -0.2317 2.8221 14.284 -0.17759 -1.13527 -3.892 -1.77636e-015 0 21.3589 -0.320438 -1.69909 -3.4152 0 0 14.7041 -0.152781 -1.18405 -12.147 0.0099 -2.2166 34.5699 -2.07954 -6.60982 -3.6012 -3.55271e-015 -8.88178e-016 21.3922 -0.321424 -1.70162 -3.3073 7.10543e-015 0 25.5717 -0.457037 -2.01378 -10.9082 -0.2264 -4.7258 41.7948 -4.00989 -6.64677 -4.1367 0 -1.77636e-015 21.3689 -0.320733 -1.69985 -2.5948 0 4.44089e-016 25.5711 -0.457022 -2.01373 -9.1245 -6.6564 -0.0554 4.29924 -30.8343 -3.4386 -0.2447 -40.5954 -0.5145 -1.20093 41.4878 -6.72256 0.2447 -42.0479 -2.0602 -1.78144 -18.0435 -0.0502592 -0.3734 -10.4922 12.6407 -0.00343147 4.49605 0.000416581 9.1245 -6.6564 -0.0554 22.4283 -35.13 22.1084 0.2447 -40.5954 -0.517 -3.28285 59.1878 14.1498 -0.2447 -42.048 -2.0576 -9.95651 13.0972 6.02496 0.3734 -10.4922 12.6407 -2.42204 -33.3644 -1.28841 
0.15487 93.6279 0.188349 -0.489977 5.28477 -7.01293 0 9.9235 -1.2273 4.38304 9.05323 2.54592 -0.0001 11.6454 -1.4223 1.05117 6.27685 1.28703 0.0001 13.3602 -1.6265 1.07666 6.28247 1.23194 -3.55271e-015 15.0325 0.7929 -1.49617 2.12488 -0.595704 0 10.3218 3.1424 0.332892 -2.84659 -2.72309 0.0002 18.4747 6.6364 -1.59028e-015 3.18055e-015 -0 2.9479 7.6817 9.1207 -1.59028e-015 3.18055e-015 -0 -2.9445 7.6817 9.1205 -1.59028e-015 3.18055e-015 -0 6.1058 9.1104 0.7056 -14.7601 4.15336 -9.19923 12.655 -0.2659 -2.6009 -72.8439 -11.1473 -22.1839 27.4047 7.10543e-015 -8.88178e-016 4.96654e-006 -2.78942e-007 -31.0737 27.6145 7.10543e-015 0 3.44813 15.2375 2.33757 12.7755 0 0 -13.6043 -0.658524 3.6914 3.614 7.10543e-015 0 -27.2992 -0.653958 2.6925 3.4598 0 0 -6.80794 -0.041382 0.69567 3.7888 -2.167 3.0031 4.62115 -6.47489 -5.6252 3.6754 -2.122 2.122 2.2045 8.61781 24.574 3.3944 -1.9597 1.9598 17.472 4.20363 25.9879 12.2666 -0.2317 2.8221 -25.2846 -1.51541 4.6726 3.892 0 0 -26.2082 -0.603617 2.5926 3.4152 8.88178e-015 0 -15.4669 -0.212563 1.56522 12.147 0.0099 -2.2166 -22.1456 -1.26565 4.42627 3.6012 0 3.55271e-015 -27.1374 -0.646376 2.67774 3.3073 1.77636e-015 0 -22.9734 -0.465635 2.2911 10.9082 -0.2264 -4.7258 -29.3452 -1.85792 4.97041 4.1367 0 7.10543e-015 -13.6592 -0.165992 1.38595 2.5948 -8.88178e-016 0 -22.9687 -0.465448 2.29065 -6.1057 9.1105 0.7056 4.7559 6.43368 17.4566 -12.655 -0.266 -2.6009 68.0799 -5.57491 12.8784 -27.4047 0 0 -8.17107e-006 -3.9775e-006 22.6827 -27.6145 -3.55271e-015 3.55271e-015 1.28922 11.6273 9.01666 -12.7755 -3.55271e-015 0 26.0245 -1.43319 -4.1213 -3.614 1.77636e-015 1.77636e-015 21.4965 -0.324535 -1.70952 -3.4598 0 1.77636e-015 25.692 -0.461276 -2.02263 -3.7888 -2.167 3.0031 -4.77961 -7.19385 -4.49763 -3.6754 -2.122 2.122 -2.78923 9.41523 -27.6568 -3.3944 -1.9597 1.9598 -16.4739 1.59056 -18.8181 -12.2666 -0.2317 2.8221 14.3221 -0.179825 -1.13794 -3.892 0 0 21.4939 -0.324453 -1.70931 -3.4152 3.55271e-015 0 14.8318 -0.155436 -1.1941 -12.147 0.0099 -2.2166 34.6038 -2.08225 -6.61135 -3.6012 0 0 21.5132 -0.325026 -1.71078 -3.3073 0 0 25.6863 -0.461083 -2.02221 -10.9082 -0.2264 -4.7258 41.8269 -4.01261 -6.6479 -4.1367 0 4.44089e-016 21.4836 -0.324142 -1.70854 -2.5948 0 4.44089e-016 25.6801 -0.460859 -2.02174 -9.1245 -6.6564 -0.0554 4.41123 -30.8627 -3.41268 -0.2447 -40.5954 -0.5145 -1.19996 41.3997 -6.56447 0.2447 -42.0479 -2.0602 -1.90019 -17.8271 -0.065356 -0.3734 -10.4922 12.6407 -0.00342939 4.49446 0.000434534 9.1245 -6.6564 -0.0554 22.5316 -35.1644 22.1228 0.2447 -40.5954 -0.517 -3.28401 59.2026 14.1545 -0.2447 -42.048 -2.0576 -10.0239 13.2275 6.20715 0.3734 -10.4922 12.6407 -2.42218 -33.3645 -1.28846 
0.144912 93.6231 -0.078296 -0.562855 5.03929 -7.20204 -2.22045e-016 9.9235 -1.2273 4.3911 8.8836 2.60729 -0.0001 11.6454 -1.4223 1.05083 6.13486 1.41276 0.0001 13.3602 -1.6265 1.03971 6.14112 1.35475 0 15.0325 0.7929 -1.57614 2.00491 -0.61563 -1.77636e-015 10.3218 3.1424 0.493918 -2.44027 -2.80305 0.0002 18.4747 6.6364 1.59028e-015 -3.18055e-015 7.95139e-016 2.9479 7.6817 9.1207 1.59028e-015 -3.18055e-015 7.95139e-016 -2.9445 7.6817 9.1205 1.59028e-015 -3.18055e-015 7.95139e-016 6.1058 9.1104 0.7056 -14.8099 4.10675 -9.22522 12.655 -0.2659 -2.6009 -73.3123 -11.8007 -20.9966 27.4047 0 -8.88178e-016 -4.31587e-006 -2.71875e-006 -31.3054 27.6145 -7.10543e-015 0 3.43053 16.2577 2.05457 12.7755 -7.10543e-015 -7.10543e-015 -13.8044 -0.671465 3.70962 3.614 0 0 -27.7778 -0.676655 2.73602 3.4598 -1.77636e-015 0 -7.10081 -0.0450112 0.725458 3.7888 -2.167 3.0031 4.62115 -6.47489 -5.6252 3.6754 -2.122 2.122 2.2045 8.61781 24.574 3.3944 -1.9597 1.9598 17.472 4.20363 25.9879 12.2666 -0.2317 2.8221 -25.4962 -1.53273 4.68872 3.892 0 -3.55271e-015 -26.714 -0.626723 2.63902 3.4152 -5.32907e-015 0 -15.7758 -0.221085 1.5957 12.147 0.0099 -2.2166 -22.3348 -1.28032 4.44152 3.6012 0 0 -27.591 -0.667758 2.71905 3.3073 1.77636e-015 0 -23.2512 -0.476816 2.3173 10.9082 -0.2264 -4.7258 -29.5245 -1.87352 4.983 4.1367 3.55271e-015 0 -14.0901 -0.176584 1.42882 2.5948 0 -3.55271e-015 -23.2327 -0.476064 2.31554 -6.1057 9.1105 0.7056 4.49088 6.36372 17.5377 -12.655 -0.266 -2.6009 68.4768 -5.83359 11.9702 -27.4047 0 0 -1.78162e-005 -2.21044e-006 22.8485 -27.6145 -3.55271e-015 1.77636e-015 1.17624 11.5843 9.04402 -12.7755 -3.55271e-015 0 26.1293 -1.44075 -4.12723 -3.614 0 -3.55271e-015 21.8699 -0.335763 -1.73778 -3.4598 0 3.55271e-015 26.0459 -0.473857 -2.04855 -3.7888 -2.167 3.0031 -4.77961 -7.19385 -4.49763 -3.6754 -2.122 2.122 -2.78923 9.41523 -27.6568 -3.3944 -1.9597 1.9598 -16.4739 1.59056 -18.8181 -12.2666 -0.2317 2.8221 14.4331 -0.186386 -1.1457 -3.892 0 0 21.8884 -0.336328 -1.73917 -3.4152 -1.77636e-015 0 15.2052 -0.163309 -1.22348 -12.147 0.0099 -2.2166 34.7029 -2.09015 -6.61582 -3.6012 -3.55271e-015 1.77636e-015 21.8672 -0.335685 -1.73758 -3.3073 -7.10543e-015 -8.88178e-016 26.0222 -0.473013 -2.04683 -10.9082 -0.2264 -4.7258 41.9209 -4.02059 -6.65117 -4.1367 -3.55271e-015 0 21.8195 -0.334234 -1.73397 -2.5948 -7.10543e-015 -1.33227e-015 25.9993 -0.472193 -2.04515 -9.1245 -6.6564 -0.0554 4.52881 -30.7533 -3.38652 -0.2447 -40.5954 -0.5145 -1.19928 41.3271 -6.40684 0.2447 -42.0479 -2.0602 -2.02951 -17.6105 -0.0816187 -0.3734 -10.4922 12.6407 -0.00342936 4.49302 0.000422016 9.1245 -6.6564 -0.0554 22.6223 -35.0569 22.1043 0.2447 -40.5954 -0.517 -3.28586 59.2245 14.1599 -0.2447 -42.048 -2.0576 -10.0859 13.3671 6.37037 0.3734 -10.4922 12.6407 -2.42204 -33.3644 -1.28841 
0.1255 93.6138 -0.368527 -0.647446 4.68333 -7.39211 -2.22045e-016 9.9235 -1.2273 4.40532 8.71509 2.66774 -0.0001 11.6454 -1.4223 1.05049 5.99165 1.53894 0.0001 13.3602 -1.6265 1.00281 5.99835 1.47728 0 15.0325 0.7929 -1.65837 1.81838 -0.638858 -1.77636e-015 10.3218 3.1424 0.663087 -2.09046 -2.87889 0.0002 18.4747 6.6364 -1.98785e-015 3.18055e-015 -0 2.9479 7.6817 9.1207 -1.98785e-015 3.18055e-015 -0 -2.9445 7.6817 9.1205 -1.98785e-015 3.18055e-015 -0 6.1058 9.1104 0.7056 -14.8878 4.07574 -9.25468 12.655 -0.2659 -2.6009 -73.548 -12.3029 -19.4732 27.4047 0 0 1.66881e-006 -2.83075e-006 -31.6633 27.6145 7.10543e-015 7.10543e-015 3.47044 17.0297 1.71893 12.7755 0 7.10543e-015 -14.1282 -0.692546 3.739 3.614 7.10543e-015 0 -28.5528 -0.714155 2.80607 3.4598 0 -3.55271e-015 -7.57549 -0.0512248 0.773684 3.7888 -2.167 3.0031 4.62115 -6.47489 -5.6252 3.6754 -2.122 2.122 2.2045 8.61781 24.574 3.3944 -1.9597 1.9598 17.472 4.20363 25.9879 12.2666 -0.2317 2.8221 -25.8382 -1.56084 4.71461 3.892 -3.55271e-015 0 -27.5321 -0.664961 2.7137 3.4152 1.77636e-015 -3.55271e-015 -16.2761 -0.235241 1.64496 12.147 0.0099 -2.2166 -22.6413 -1.30418 4.46608 3.6012 0 0 -28.3262 -0.703093 2.78564 3.3073 3.55271e-015 0 -23.7018 -0.49521 2.35965 10.9082 -0.2264 -4.7258 -29.8151 -1.89889 5.00329 4.1367 0 0 -14.789 -0.19444 1.49816 2.5948 -2.66454e-015 3.55271e-015 -23.6612 -0.493542 2.35585 -6.1057 9.1105 0.7056 4.36444 6.2817 17.6239 -12.655 -0.266 -2.6009 68.7328 -6.10481 10.8926 -27.4047 0 0 -1.08033e-005 -3.73767e-006 23.1076 -27.6145 0 -3.55271e-015 0.996575 11.5393 8.99824 -12.7755 -3.55271e-015 3.55271e-015 26.299 -1.453 -4.13679 -3.614 1.77636e-015 3.55271e-015 22.4745 -0.354352 -1.78338 -3.4598 -1.06581e-014 0 26.6193 -0.494579 -2.09043 -3.7888 -2.167 3.0031 -4.77961 -7.19385 -4.49763 -3.6754 -2.122 2.122 -2.78923 9.41523 -27.6568 -3.3944 -1.9597 1.9598 -16.4739 1.59056 -18.8181 -12.2666 -0.2317 2.8221 14.6126 -0.197014 -1.15819 -3.892 0 3.55271e-015 22.5266 -0.35598 -1.78731 -3.4152 0 0 15.81 -0.176476 -1.27093 -12.147 0.0099 -2.2166 34.8635 -2.10297 -6.62305 -3.6012 -3.55271e-015 8.88178e-016 22.441 -0.353302 -1.78085 -3.3073 7.10543e-015 -1.77636e-015 26.5669 -0.492665 -2.0866 -10.9082 -0.2264 -4.7258 42.0732 -4.03351 -6.65645 -4.1367 0 -8.88178e-016 22.3643 -0.350923 -1.77509 -2.5948 0 1.33227e-015 26.5174 -0.490862 -2.083 -9.1245 -6.6564 -0.0554 4.65103 -30.5472 -3.36046 -0.2447 -40.5954 -0.5145 -1.19881 41.2686 -6.25766 0.2447 -42.0479 -2.0602 -2.16553 -17.3943 -0.098417 -0.3734 -10.4922 12.6407 -0.0034266 4.49084 0.000424823 9.1245 -6.6564 -0.0554 22.7104 -34.8496 22.0717 0.2447 -40.5954 -0.517 -3.28832 59.2527 14.1658 -0.2447 -42.048 -2.0576 -10.1362 13.5161 6.51224 0.3734 -10.4922 12.6407 -2.42012 -33.3635 -1.28738 
